<svg width="1016" height="477" viewBox="0 0 1016 477" fill="none" xmlns="http://www.w3.org/2000/svg">
<path fill-rule="evenodd" clip-rule="evenodd" d="M325.086 41.438C379.1 -13.8127 466.674 -13.8126 520.688 41.438L760.658 286.904L85.1152 286.904L186.619 183.077C190.774 178.827 197.51 178.827 201.665 183.077C205.82 187.327 205.82 194.217 201.665 198.467L136.486 265.138L709.287 265.138L505.641 56.8288C459.937 10.0783 385.836 10.0782 340.133 56.8287L260.181 138.611C256.026 142.861 249.29 142.861 245.135 138.611C240.98 134.361 240.98 127.47 245.135 123.22L325.086 41.438Z" fill="#F24822"/>
<path fill-rule="evenodd" clip-rule="evenodd" d="M685.605 107.981C728.539 64.064 798.148 64.0639 841.082 107.981L1016 286.905L510.687 286.905L599.777 195.773C603.932 191.523 610.669 191.523 614.824 195.773C618.979 200.023 618.979 206.914 614.824 211.164L562.057 265.139L964.63 265.139L826.036 123.372C791.412 87.9548 735.275 87.9548 700.651 123.372L671.567 153.122C667.412 157.372 660.675 157.372 656.52 153.122C652.365 148.871 652.365 141.981 656.52 137.731L685.605 107.981Z" fill="#034AA6"/>
<path fill-rule="evenodd" clip-rule="evenodd" d="M642.482 444.062C599.548 487.979 529.938 487.979 487.004 444.062L457.92 414.311C453.765 410.061 453.765 403.17 457.92 398.92C462.075 394.67 468.811 394.67 472.966 398.92L502.051 428.671C536.675 464.088 592.812 464.088 627.436 428.671L766.029 286.903L536.372 286.903C530.496 286.903 525.733 282.031 525.733 276.021C525.733 270.01 530.496 265.138 536.372 265.138L817.4 265.138L642.482 444.062ZM416.223 356.269C412.068 360.519 405.332 360.519 401.177 356.269L330.248 283.716C326.094 279.466 326.094 272.575 330.248 268.325C334.403 264.075 341.14 264.075 345.295 268.325L416.223 340.878C420.378 345.128 420.378 352.019 416.223 356.269Z" fill="#F2CA7E"/>
<path fill-rule="evenodd" clip-rule="evenodd" d="M100.162 276.024C100.162 270.014 104.925 265.141 110.801 265.141L224.287 265.141C230.163 265.141 234.926 270.014 234.926 276.024C234.926 282.035 230.163 286.907 224.287 286.907L110.801 286.907C104.925 286.907 100.162 282.035 100.162 276.024Z" fill="#F2CA7E"/>
<path fill-rule="evenodd" clip-rule="evenodd" d="M438.006 392.033C406.152 424.617 354.506 424.617 322.652 392.033L198.6 265.141L337.772 265.141L337.772 286.907L249.971 286.907L337.698 376.642C361.242 400.726 399.415 400.726 422.96 376.642L548.354 248.376L563.4 263.767L438.006 392.033Z" fill="#034AA6"/>
<path fill-rule="evenodd" clip-rule="evenodd" d="M124.051 160.014C155.906 127.431 207.552 127.431 239.406 160.014L345.295 268.328C349.45 272.578 349.45 279.469 345.295 283.719C341.14 287.969 334.403 287.969 330.248 283.719L224.36 175.405C200.815 151.322 162.642 151.322 139.098 175.405L51.3711 265.141H110.8C116.676 265.141 121.439 270.013 121.439 276.024C121.439 282.034 116.676 286.907 110.8 286.907H1.05363e-06L124.051 160.014Z" fill="#F2CA7E"/>
<rect width="1015.24" height="476.875" fill="url(#paint0_linear_252_265)"/>
<defs>
<linearGradient id="paint0_linear_252_265" x1="507.619" y1="0" x2="507.619" y2="476.875" gradientUnits="userSpaceOnUse">
<stop stop-color="white" stop-opacity="0"/>
<stop offset="1" stop-color="white"/>
</linearGradient>
</defs>
</svg>
