<svg width="1200" height="1600" viewBox="0 0 1200 1600" fill="none" xmlns="http://www.w3.org/2000/svg">
<g clip-path="url(#clip0_235_228)">
<rect width="1200" height="1600" fill="#034AA6"/>
<rect width="1200" height="1600" fill="#034AA6"/>
<path d="M122.624 398C121.451 398 120.629 397.472 120.16 396.416L99.392 349.6C99.1573 349.131 98.8053 348.896 98.336 348.896H86.72C86.1333 348.896 85.84 349.189 85.84 349.776V395.888C85.84 396.475 85.6053 397.003 85.136 397.472C84.784 397.824 84.3147 398 83.728 398H58.736C58.1493 398 57.6213 397.824 57.152 397.472C56.8 397.003 56.624 396.475 56.624 395.888V276.912C56.624 276.325 56.8 275.856 57.152 275.504C57.6213 275.035 58.1493 274.8 58.736 274.8H111.008C118.752 274.8 125.557 276.384 131.424 279.552C137.291 282.72 141.808 287.237 144.976 293.104C148.261 298.853 149.904 305.483 149.904 312.992C149.904 320.853 147.968 327.659 144.096 333.408C140.224 339.157 134.827 343.323 127.904 345.904C127.317 346.139 127.141 346.549 127.376 347.136L150.608 395.536C150.843 396.005 150.96 396.357 150.96 396.592C150.96 397.531 150.315 398 149.024 398H122.624ZM86.72 299.792C86.1333 299.792 85.84 300.085 85.84 300.672V325.664C85.84 326.251 86.1333 326.544 86.72 326.544H106.256C110.597 326.544 114.117 325.371 116.816 323.024C119.515 320.56 120.864 317.333 120.864 313.344C120.864 309.237 119.515 305.952 116.816 303.488C114.117 301.024 110.597 299.792 106.256 299.792H86.72ZM252.205 297.68C252.205 298.267 251.971 298.795 251.501 299.264C251.149 299.616 250.68 299.792 250.093 299.792H194.829C194.243 299.792 193.949 300.085 193.949 300.672V322.32C193.949 322.907 194.243 323.2 194.829 323.2H230.205C230.792 323.2 231.261 323.435 231.613 323.904C232.083 324.256 232.317 324.725 232.317 325.312V345.904C232.317 346.491 232.083 347.019 231.613 347.488C231.261 347.84 230.792 348.016 230.205 348.016H194.829C194.243 348.016 193.949 348.309 193.949 348.896V372.128C193.949 372.715 194.243 373.008 194.829 373.008H250.093C250.68 373.008 251.149 373.243 251.501 373.712C251.971 374.064 252.205 374.533 252.205 375.12V395.888C252.205 396.475 251.971 397.003 251.501 397.472C251.149 397.824 250.68 398 250.093 398H166.845C166.259 398 165.731 397.824 165.261 397.472C164.909 397.003 164.733 396.475 164.733 395.888V276.912C164.733 276.325 164.909 275.856 165.261 275.504C165.731 275.035 166.259 274.8 166.845 274.8H250.093C250.68 274.8 251.149 275.035 251.501 275.504C251.971 275.856 252.205 276.325 252.205 276.912V297.68ZM311.016 399.408C301.277 399.408 292.77 397.883 285.496 394.832C278.338 391.664 272.765 387.205 268.776 381.456C264.904 375.589 262.968 368.843 262.968 361.216V357.872C262.968 357.285 263.144 356.816 263.495 356.464C263.965 355.995 264.493 355.76 265.08 355.76H289.544C290.13 355.76 290.6 355.995 290.952 356.464C291.421 356.816 291.656 357.285 291.656 357.872V359.984C291.656 363.856 293.592 367.259 297.464 370.192C301.336 373.008 306.557 374.416 313.128 374.416C318.29 374.416 322.104 373.301 324.568 371.072C327.032 368.843 328.264 366.261 328.264 363.328C328.264 360.981 327.501 359.104 325.976 357.696C324.568 356.171 322.632 354.939 320.168 354C317.704 352.944 313.89 351.536 308.728 349.776C308.024 349.424 307.32 349.189 306.616 349.072C305.912 348.837 305.266 348.603 304.68 348.368C297.053 345.904 290.424 343.264 284.792 340.448C279.16 337.515 274.349 333.525 270.36 328.48C266.37 323.317 264.376 316.981 264.376 309.472C264.376 302.197 266.253 295.861 270.008 290.464C273.88 284.949 279.218 280.725 286.024 277.792C292.829 274.859 300.514 273.392 309.08 273.392C318.114 273.392 326.21 275.035 333.368 278.32C340.642 281.605 346.333 286.24 350.44 292.224C354.546 298.208 356.6 305.072 356.6 312.816V315.28C356.6 315.867 356.365 316.395 355.896 316.864C355.544 317.216 355.074 317.392 354.488 317.392H330.024C329.437 317.392 328.909 317.216 328.44 316.864C328.088 316.395 327.912 315.867 327.912 315.28V314.048C327.912 309.941 326.093 306.304 322.456 303.136C318.818 299.968 313.949 298.384 307.848 298.384C303.272 298.384 299.693 299.323 297.112 301.2C294.53 303.077 293.24 305.717 293.24 309.12C293.24 311.701 294.061 313.872 295.704 315.632C297.346 317.275 299.869 318.859 303.272 320.384C306.792 321.792 312.13 323.669 319.288 326.016C327.501 328.832 333.896 331.296 338.472 333.408C343.048 335.52 347.33 338.981 351.32 343.792C355.426 348.485 357.48 354.704 357.48 362.448C357.48 370.075 355.544 376.645 351.672 382.16C347.8 387.675 342.344 391.957 335.304 395.008C328.381 397.941 320.285 399.408 311.016 399.408ZM459.143 297.68C459.143 298.267 458.908 298.795 458.439 299.264C458.087 299.616 457.618 299.792 457.031 299.792H401.767C401.18 299.792 400.887 300.085 400.887 300.672V322.32C400.887 322.907 401.18 323.2 401.767 323.2H437.143C437.73 323.2 438.199 323.435 438.551 323.904C439.02 324.256 439.255 324.725 439.255 325.312V345.904C439.255 346.491 439.02 347.019 438.551 347.488C438.199 347.84 437.73 348.016 437.143 348.016H401.767C401.18 348.016 400.887 348.309 400.887 348.896V372.128C400.887 372.715 401.18 373.008 401.767 373.008H457.031C457.618 373.008 458.087 373.243 458.439 373.712C458.908 374.064 459.143 374.533 459.143 375.12V395.888C459.143 396.475 458.908 397.003 458.439 397.472C458.087 397.824 457.618 398 457.031 398H373.783C373.196 398 372.668 397.824 372.199 397.472C371.847 397.003 371.671 396.475 371.671 395.888V276.912C371.671 276.325 371.847 275.856 372.199 275.504C372.668 275.035 373.196 274.8 373.783 274.8H457.031C457.618 274.8 458.087 275.035 458.439 275.504C458.908 275.856 459.143 276.325 459.143 276.912V297.68ZM553.681 398C552.39 398 551.569 397.413 551.217 396.24L546.641 380.576C546.406 380.107 546.113 379.872 545.761 379.872H505.633C505.281 379.872 504.988 380.107 504.753 380.576L500.177 396.24C499.825 397.413 499.004 398 497.713 398H470.785C470.081 398 469.553 397.824 469.201 397.472C468.849 397.003 468.79 396.357 469.025 395.536L506.689 276.56C507.041 275.387 507.804 274.8 508.977 274.8H542.241C543.414 274.8 544.177 275.387 544.529 276.56L582.369 395.536C582.486 395.771 582.545 396.064 582.545 396.416C582.545 397.472 581.9 398 580.609 398H553.681ZM511.793 356.288C511.676 356.992 511.91 357.344 512.497 357.344H538.721C539.425 357.344 539.66 356.992 539.425 356.288L526.049 311.056C525.932 310.587 525.756 310.411 525.521 310.528C525.286 310.528 525.11 310.704 524.993 311.056L511.793 356.288ZM661.452 398C660.279 398 659.457 397.472 658.988 396.416L638.22 349.6C637.985 349.131 637.633 348.896 637.164 348.896H625.548C624.961 348.896 624.668 349.189 624.668 349.776V395.888C624.668 396.475 624.433 397.003 623.964 397.472C623.612 397.824 623.143 398 622.556 398H597.564C596.977 398 596.449 397.824 595.98 397.472C595.628 397.003 595.452 396.475 595.452 395.888V276.912C595.452 276.325 595.628 275.856 595.98 275.504C596.449 275.035 596.977 274.8 597.564 274.8H649.836C657.58 274.8 664.385 276.384 670.252 279.552C676.119 282.72 680.636 287.237 683.804 293.104C687.089 298.853 688.732 305.483 688.732 312.992C688.732 320.853 686.796 327.659 682.924 333.408C679.052 339.157 673.655 343.323 666.732 345.904C666.145 346.139 665.969 346.549 666.204 347.136L689.436 395.536C689.671 396.005 689.788 396.357 689.788 396.592C689.788 397.531 689.143 398 687.852 398H661.452ZM625.548 299.792C624.961 299.792 624.668 300.085 624.668 300.672V325.664C624.668 326.251 624.961 326.544 625.548 326.544H645.084C649.425 326.544 652.945 325.371 655.644 323.024C658.343 320.56 659.692 317.333 659.692 313.344C659.692 309.237 658.343 305.952 655.644 303.488C652.945 301.024 649.425 299.792 645.084 299.792H625.548ZM748.794 399.408C739.407 399.408 731.135 397.589 723.978 393.952C716.938 390.315 711.423 385.152 707.434 378.464C703.562 371.776 701.626 364.032 701.626 355.232V317.216C701.626 308.533 703.562 300.907 707.434 294.336C711.423 287.648 716.938 282.485 723.978 278.848C731.135 275.211 739.407 273.392 748.794 273.392C758.18 273.392 766.394 275.152 773.434 278.672C780.591 282.075 786.106 286.944 789.978 293.28C793.967 299.499 795.962 306.715 795.962 314.928C795.962 315.515 795.727 315.984 795.258 316.336C794.906 316.688 794.436 316.864 793.85 316.864L768.858 318.448C767.45 318.448 766.746 317.803 766.746 316.512C766.746 310.997 765.103 306.597 761.818 303.312C758.532 300.027 754.191 298.384 748.794 298.384C743.396 298.384 739.055 300.085 735.77 303.488C732.484 306.773 730.842 311.115 730.842 316.512V356.464C730.842 361.861 732.484 366.203 735.77 369.488C739.055 372.773 743.396 374.416 748.794 374.416C754.191 374.416 758.532 372.773 761.818 369.488C765.103 366.203 766.746 361.861 766.746 356.464C766.746 355.173 767.45 354.528 768.858 354.528L793.85 355.76C794.436 355.76 794.906 355.936 795.258 356.288C795.727 356.64 795.962 357.051 795.962 357.52C795.962 365.851 793.967 373.184 789.978 379.52C786.106 385.856 780.591 390.784 773.434 394.304C766.394 397.707 758.18 399.408 748.794 399.408ZM874.7 276.912C874.7 276.325 874.876 275.856 875.228 275.504C875.697 275.035 876.225 274.8 876.812 274.8H901.804C902.39 274.8 902.86 275.035 903.212 275.504C903.681 275.856 903.916 276.325 903.916 276.912V395.888C903.916 396.475 903.681 397.003 903.212 397.472C902.86 397.824 902.39 398 901.804 398H876.812C876.225 398 875.697 397.824 875.228 397.472C874.876 397.003 874.7 396.475 874.7 395.888V349.072C874.7 348.485 874.406 348.192 873.82 348.192H840.908C840.321 348.192 840.028 348.485 840.028 349.072V395.888C840.028 396.475 839.793 397.003 839.324 397.472C838.972 397.824 838.502 398 837.916 398H812.924C812.337 398 811.809 397.824 811.34 397.472C810.988 397.003 810.812 396.475 810.812 395.888V276.912C810.812 276.325 810.988 275.856 811.34 275.504C811.809 275.035 812.337 274.8 812.924 274.8H837.916C838.502 274.8 838.972 275.035 839.324 275.504C839.793 275.856 840.028 276.325 840.028 276.912V322.32C840.028 322.907 840.321 323.2 840.908 323.2H873.82C874.406 323.2 874.7 322.907 874.7 322.32V276.912Z" fill="white"/>
<g opacity="0.7">
<path fill-rule="evenodd" clip-rule="evenodd" d="M527.161 1018.79C606.877 939.068 736.123 939.069 815.839 1018.79L1170 1373L173 1373L322.804 1223.18C328.936 1217.04 338.878 1217.04 345.01 1223.18C351.142 1229.31 351.142 1239.25 345.01 1245.39L248.816 1341.59L1094.18 1341.59L793.633 1041C726.181 973.543 616.819 973.543 549.367 1041L431.371 1159.01C425.239 1165.15 415.297 1165.15 409.165 1159.01C403.033 1152.88 403.033 1142.94 409.165 1136.81L527.161 1018.79Z" fill="white"/>
<path fill-rule="evenodd" clip-rule="evenodd" d="M1059.23 1114.57C1122.62 1051.14 1225.38 1051.14 1288.77 1114.57L1547 1373H801L932.526 1241.37C938.66 1235.24 948.605 1235.24 954.739 1241.37C960.872 1247.51 960.873 1257.47 954.739 1263.6L876.839 1341.56H1471.16L1266.55 1136.8C1215.44 1085.65 1132.56 1085.65 1081.45 1136.8L1038.51 1179.77C1032.37 1185.91 1022.43 1185.91 1016.3 1179.77C1010.16 1173.63 1010.16 1163.68 1016.3 1157.54L1059.23 1114.57Z" fill="white"/>
<path fill-rule="evenodd" clip-rule="evenodd" d="M995.691 1599.43C932.288 1662.86 829.493 1662.86 766.09 1599.43L723.14 1556.46C717.004 1550.32 717.004 1540.37 723.14 1534.23C729.276 1528.09 739.224 1528.09 745.359 1534.23L788.31 1577.2C839.441 1628.35 922.34 1628.35 973.471 1577.2L1178.14 1372.44L838.993 1372.44C830.316 1372.44 823.281 1365.4 823.281 1356.72C823.281 1348.04 830.316 1341 838.993 1341L1254 1341L995.691 1599.43ZM661.565 1472.62C655.429 1478.76 645.481 1478.76 639.345 1472.62L534.602 1367.83C528.466 1361.69 528.466 1351.74 534.602 1345.6C540.738 1339.47 550.686 1339.47 556.821 1345.6L661.565 1450.39C667.7 1456.53 667.7 1466.49 661.565 1472.62Z" fill="white"/>
<path fill-rule="evenodd" clip-rule="evenodd" d="M195 1357C195 1348.16 202.034 1341 210.711 1341H378.289C386.966 1341 394 1348.16 394 1357C394 1365.84 386.966 1373 378.289 1373H210.711C202.034 1373 195 1365.84 195 1357Z" fill="white"/>
<path fill-rule="evenodd" clip-rule="evenodd" d="M694.071 1524.67C647.093 1571.78 570.926 1571.78 523.948 1524.67L341 1341.24L546.247 1341.24L546.247 1372.7L416.761 1372.7L546.138 1502.42C580.861 1537.24 637.158 1537.24 671.881 1502.42L856.81 1317L879 1339.25L694.071 1524.67Z" fill="white"/>
<path fill-rule="evenodd" clip-rule="evenodd" d="M231.009 1189.37C278.003 1142.21 354.195 1142.21 401.188 1189.37L557.403 1346.11C563.532 1352.26 563.532 1362.24 557.403 1368.39C551.273 1374.54 541.335 1374.54 535.206 1368.39L378.991 1211.64C344.257 1176.79 287.941 1176.79 253.206 1211.64L123.786 1341.5H211.46C220.128 1341.5 227.156 1348.55 227.156 1357.25C227.156 1365.95 220.128 1373 211.46 1373H48L231.009 1189.37Z" fill="white"/>
</g>
<path d="M48 200H246.5" stroke="white" stroke-width="24"/>
</g>
<defs>
<clipPath id="clip0_235_228">
<rect width="1200" height="1600" fill="white"/>
</clipPath>
</defs>
</svg>
