<svg width="120" height="120" viewBox="0 0 120 120" fill="none" xmlns="http://www.w3.org/2000/svg">
<path d="M37.3276 56.2502C37.0252 56.25 36.7274 56.1767 36.4595 56.0365L28.1251 51.6846L19.7907 56.0365C19.481 56.1981 19.1322 56.2699 18.7838 56.2438C18.4354 56.2177 18.1011 56.0948 17.8189 55.8889C17.5366 55.6831 17.3174 55.4024 17.1861 55.0786C17.0548 54.7549 17.0166 54.4008 17.0757 54.0565L18.6639 44.8577L11.9307 38.3402C11.679 38.0963 11.5006 37.7868 11.4159 37.4466C11.3312 37.1065 11.3435 36.7494 11.4515 36.416C11.5595 36.0825 11.7588 35.786 12.0268 35.56C12.2947 35.3341 12.6207 35.1878 12.9676 35.1377L22.2826 33.7915L26.4451 25.4159C26.6181 25.1244 26.864 24.883 27.1585 24.7153C27.4531 24.5476 27.7862 24.4595 28.1251 24.4595C28.4641 24.4595 28.7972 24.5476 29.0917 24.7153C29.3862 24.883 29.6321 25.1244 29.8051 25.4159L33.9676 33.7915L43.2826 35.1377C43.6296 35.1878 43.9555 35.3341 44.2235 35.56C44.4915 35.786 44.6908 36.0825 44.7987 36.416C44.9067 36.7494 44.919 37.1065 44.8343 37.4466C44.7496 37.7868 44.5713 38.0963 44.3195 38.3402L37.5864 44.8577L39.1745 54.0565C39.2209 54.3256 39.208 54.6017 39.1366 54.8653C39.0652 55.129 38.9371 55.3738 38.7612 55.5828C38.5852 55.7917 38.3658 55.9597 38.1182 56.075C37.8706 56.1903 37.6008 56.2501 37.3276 56.2502ZM28.1251 47.6965C28.4273 47.6967 28.725 47.7694 28.9932 47.9084L34.8339 50.959L33.722 44.5184C33.6699 44.2172 33.6923 43.908 33.787 43.6174C33.8818 43.3269 34.0461 43.064 34.2657 42.8515L38.9664 38.3027L32.4583 37.3652C32.1583 37.3218 31.8733 37.2064 31.6277 37.0287C31.3822 36.8511 31.1833 36.6166 31.0482 36.3452L28.1251 30.4634L25.202 36.3434C25.0669 36.6147 24.8681 36.8492 24.6225 37.0268C24.3769 37.2045 24.092 37.32 23.792 37.3634L17.2839 38.3009L21.9845 42.8496C22.2041 43.0621 22.3684 43.3251 22.4632 43.6156C22.558 43.9061 22.5803 44.2154 22.5282 44.5165L21.4164 50.9571L27.257 47.9065C27.5254 47.7681 27.8231 47.6961 28.1251 47.6965Z" fill="#F2CA7E"/>
<path d="M101.078 56.2502C100.775 56.25 100.477 56.1767 100.209 56.0365L91.8751 51.6846L83.5407 56.0365C83.231 56.1981 82.8822 56.2699 82.5338 56.2438C82.1854 56.2177 81.8511 56.0948 81.5689 55.8889C81.2866 55.6831 81.0674 55.4024 80.9361 55.0786C80.8048 54.7549 80.7666 54.4008 80.8257 54.0565L82.4139 44.8577L75.6807 38.3402C75.429 38.0963 75.2506 37.7868 75.1659 37.4466C75.0812 37.1065 75.0935 36.7494 75.2015 36.416C75.3095 36.0825 75.5088 35.786 75.7768 35.56C76.0447 35.3341 76.3707 35.1878 76.7176 35.1377L86.0326 33.7915L90.1951 25.4159C90.3681 25.1244 90.614 24.883 90.9085 24.7153C91.2031 24.5476 91.5362 24.4595 91.8751 24.4595C92.2141 24.4595 92.5472 24.5476 92.8417 24.7153C93.1362 24.883 93.3821 25.1244 93.5551 25.4159L97.7176 33.7915L107.033 35.1377C107.38 35.1878 107.706 35.3341 107.973 35.56C108.241 35.786 108.441 36.0825 108.549 36.416C108.657 36.7494 108.669 37.1065 108.584 37.4466C108.5 37.7868 108.321 38.0963 108.069 38.3402L101.336 44.8577L102.925 54.0565C102.971 54.3256 102.958 54.6017 102.887 54.8653C102.815 55.129 102.687 55.3738 102.511 55.5828C102.335 55.7917 102.116 55.9597 101.868 56.075C101.621 56.1903 101.351 56.2501 101.078 56.2502ZM91.8751 47.6965C92.1773 47.6967 92.475 47.7694 92.7433 47.9084L98.5839 50.959L97.472 44.5184C97.4199 44.2172 97.4423 43.908 97.537 43.6174C97.6318 43.3269 97.7961 43.064 98.0158 42.8515L102.716 38.3027L96.2083 37.3652C95.9083 37.3218 95.6233 37.2064 95.3777 37.0287C95.1322 36.8511 94.9333 36.6166 94.7982 36.3452L91.8751 30.4634L88.952 36.3434C88.8169 36.6147 88.6181 36.8492 88.3725 37.0268C88.1269 37.2045 87.842 37.32 87.542 37.3634L81.0339 38.3009L85.7345 42.8496C85.9541 43.0621 86.1184 43.3251 86.2132 43.6156C86.308 43.9061 86.3303 44.2154 86.2782 44.5165L85.1664 50.9571L91.007 47.9065C91.2754 47.7681 91.5731 47.6961 91.8751 47.6965Z" fill="#F24822"/>
<path d="M69.2026 46.8752C68.9002 46.875 68.6024 46.8017 68.3345 46.6615L60.0001 42.3096L51.6657 46.6615C51.356 46.8231 51.0072 46.8949 50.6588 46.8688C50.3104 46.8427 49.9761 46.7198 49.6939 46.5139C49.4116 46.3081 49.1924 46.0274 49.0611 45.7036C48.9298 45.3799 48.8916 45.0258 48.9507 44.6815L50.5389 35.4827L43.8058 28.9652C43.554 28.7213 43.3756 28.4118 43.2909 28.0716C43.2062 27.7315 43.2185 27.3744 43.3265 27.041C43.4345 26.7075 43.6338 26.411 43.9018 26.185C44.1697 25.9591 44.4957 25.8128 44.8426 25.7627L54.1576 24.4165L58.3126 16.0409C58.4856 15.7494 58.7315 15.508 59.026 15.3403C59.3206 15.1726 59.6537 15.0845 59.9926 15.0845C60.3316 15.0845 60.6646 15.1726 60.9592 15.3403C61.2537 15.508 61.4996 15.7494 61.6726 16.0409L65.8351 24.4165L75.1501 25.7627C75.4971 25.8128 75.823 25.9591 76.091 26.185C76.359 26.411 76.5583 26.7075 76.6662 27.041C76.7742 27.3744 76.7865 27.7315 76.7018 28.0716C76.6171 28.4118 76.4388 28.7213 76.187 28.9652L69.4539 35.4827L71.042 44.6815C71.0883 44.95 71.0756 45.2254 71.0046 45.4885C70.9336 45.7516 70.8062 45.9961 70.6311 46.2049C70.456 46.4138 70.2375 46.5819 69.9908 46.6977C69.7441 46.8134 69.4751 46.874 69.2026 46.8752ZM60.0001 38.3215C60.3023 38.3217 60.6 38.3944 60.8683 38.5334L66.7089 41.584L65.597 35.1434C65.5449 34.8422 65.5673 34.533 65.662 34.2424C65.7568 33.9519 65.9211 33.689 66.1408 33.4765L70.8414 28.9277L64.3333 27.9902C64.0333 27.9468 63.7483 27.8314 63.5027 27.6537C63.2572 27.4761 63.0583 27.2415 62.9232 26.9702L60.0001 21.0884L57.077 26.9684C56.9419 27.2397 56.7431 27.4742 56.4975 27.6518C56.2519 27.8295 55.967 27.945 55.667 27.9884L49.1589 28.9259L53.8595 33.4746C54.0791 33.6871 54.2434 33.9501 54.3382 34.2406C54.433 34.5311 54.4553 34.8404 54.4032 35.1415L53.2914 41.5821L59.132 38.5315C59.4004 38.3931 59.6981 38.3211 60.0001 38.3215Z" fill="#034AA6"/>
<path d="M60 78.75C56.5203 78.746 53.1842 77.3619 50.7236 74.9014C48.2631 72.4408 46.879 69.1047 46.875 65.625V61.875C46.875 58.394 48.2578 55.0556 50.7192 52.5942C53.1806 50.1328 56.519 48.75 60 48.75C63.481 48.75 66.8194 50.1328 69.2808 52.5942C71.7422 55.0556 73.125 58.394 73.125 61.875V65.625C73.121 69.1047 71.7369 72.4408 69.2764 74.9014C66.8158 77.3619 63.4797 78.746 60 78.75ZM60 52.5C57.5145 52.503 55.1317 53.4917 53.3742 55.2492C51.6167 57.0067 50.628 59.3895 50.625 61.875V65.625C50.625 68.1114 51.6127 70.496 53.3709 72.2541C55.129 74.0123 57.5136 75 60 75C62.4864 75 64.871 74.0123 66.6291 72.2541C68.3873 70.496 69.375 68.1114 69.375 65.625V61.875C69.372 59.3895 68.3833 57.0067 66.6258 55.2492C64.8683 53.4917 62.4855 52.503 60 52.5Z" fill="#404040"/>
<path d="M80.625 105C80.1277 105 79.6508 104.802 79.2992 104.451C78.9475 104.099 78.75 103.622 78.75 103.125V90C78.75 88.5082 78.1574 87.0774 77.1025 86.0225C76.0476 84.9676 74.6168 84.375 73.125 84.375H46.875C45.3832 84.375 43.9524 84.9676 42.8975 86.0225C41.8426 87.0774 41.25 88.5082 41.25 90V103.125C41.25 103.622 41.0525 104.099 40.7008 104.451C40.3492 104.802 39.8723 105 39.375 105C38.8777 105 38.4008 104.802 38.0492 104.451C37.6975 104.099 37.5 103.622 37.5 103.125V90C37.503 87.5145 38.4917 85.1317 40.2492 83.3742C42.0067 81.6167 44.3895 80.628 46.875 80.625H73.125C75.6105 80.628 77.9933 81.6167 79.7508 83.3742C81.5083 85.1317 82.497 87.5145 82.5 90V103.125C82.5 103.622 82.3025 104.099 81.9508 104.451C81.5992 104.802 81.1223 105 80.625 105Z" fill="#404040"/>
<path d="M22.5 88.125C19.0203 88.121 15.6842 86.7369 13.2236 84.2764C10.7631 81.8158 9.37897 78.4797 9.375 75V71.25C9.375 67.769 10.7578 64.4306 13.2192 61.9692C15.6806 59.5078 19.019 58.125 22.5 58.125C25.981 58.125 29.3194 59.5078 31.7808 61.9692C34.2422 64.4306 35.625 67.769 35.625 71.25V75C35.621 78.4797 34.2369 81.8158 31.7764 84.2764C29.3158 86.7369 25.9797 88.121 22.5 88.125ZM22.5 61.875C20.0145 61.878 17.6317 62.8667 15.8742 64.6242C14.1167 66.3817 13.128 68.7645 13.125 71.25V75C13.125 77.4864 14.1127 79.871 15.8709 81.6291C17.629 83.3873 20.0136 84.375 22.5 84.375C24.9864 84.375 27.371 83.3873 29.1291 81.6291C30.8873 79.871 31.875 77.4864 31.875 75V71.25C31.872 68.7645 30.8833 66.3817 29.1258 64.6242C27.3683 62.8667 24.9855 61.878 22.5 61.875Z" fill="#404040"/>
<path d="M1.875 105C1.37772 105 0.900806 104.802 0.549175 104.451C0.197544 104.099 0 103.622 0 103.125V99.375C0.00297723 96.8895 0.991654 94.5067 2.74916 92.7492C4.50667 90.9917 6.88951 90.003 9.375 90H33.75C34.2473 90 34.7242 90.1975 35.0758 90.5492C35.4275 90.9008 35.625 91.3777 35.625 91.875C35.625 92.3723 35.4275 92.8492 35.0758 93.2008C34.7242 93.5525 34.2473 93.75 33.75 93.75H9.375C7.88316 93.75 6.45242 94.3426 5.39752 95.3975C4.34263 96.4524 3.75 97.8832 3.75 99.375V103.125C3.75 103.622 3.55246 104.099 3.20083 104.451C2.84919 104.802 2.37228 105 1.875 105Z" fill="#404040"/>
<path d="M97.5 88.125C94.0203 88.121 90.6842 86.7369 88.2236 84.2764C85.7631 81.8158 84.379 78.4797 84.375 75V71.25C84.375 67.769 85.7578 64.4306 88.2192 61.9692C90.6806 59.5078 94.019 58.125 97.5 58.125C100.981 58.125 104.319 59.5078 106.781 61.9692C109.242 64.4306 110.625 67.769 110.625 71.25V75C110.621 78.4797 109.237 81.8158 106.776 84.2764C104.316 86.7369 100.98 88.121 97.5 88.125ZM97.5 61.875C95.0145 61.878 92.6317 62.8667 90.8742 64.6242C89.1167 66.3817 88.128 68.7645 88.125 71.25V75C88.125 77.4864 89.1127 79.871 90.8709 81.6291C92.629 83.3873 95.0136 84.375 97.5 84.375C99.9864 84.375 102.371 83.3873 104.129 81.6291C105.887 79.871 106.875 77.4864 106.875 75V71.25C106.872 68.7645 105.883 66.3817 104.126 64.6242C102.368 62.8667 99.9855 61.878 97.5 61.875Z" fill="#404040"/>
<path d="M118.125 105C117.628 105 117.151 104.802 116.799 104.451C116.448 104.099 116.25 103.622 116.25 103.125V99.375C116.25 97.8832 115.657 96.4524 114.602 95.3975C113.548 94.3426 112.117 93.75 110.625 93.75H86.25C85.7527 93.75 85.2758 93.5525 84.9242 93.2008C84.5725 92.8492 84.375 92.3723 84.375 91.875C84.375 91.3777 84.5725 90.9008 84.9242 90.5492C85.2758 90.1975 85.7527 90 86.25 90H110.625C113.11 90.003 115.493 90.9917 117.251 92.7492C119.008 94.5067 119.997 96.8895 120 99.375V103.125C120 103.622 119.802 104.099 119.451 104.451C119.099 104.802 118.622 105 118.125 105Z" fill="#404040"/>
</svg>
