<svg width="120" height="120" viewBox="0 0 120 120" fill="none" xmlns="http://www.w3.org/2000/svg">
<path d="M98.6902 38.4759C97.9471 37.4407 97.3535 36.3059 96.9268 35.1051C96.6798 33.7988 96.6188 32.4641 96.7457 31.1408C97.0549 28.8328 96.7018 26.4845 95.7276 24.3696C94.37 22.4513 92.4937 20.9599 90.3186 20.0702C89.1274 19.5308 88.0189 18.8249 87.0264 17.9736C86.1757 16.9805 85.4699 15.8721 84.9298 14.6812C84.0403 12.5055 82.5489 10.6285 80.6304 9.27038C78.5161 8.29836 76.1695 7.94597 73.863 8.25413C72.539 8.38103 71.2037 8.32006 69.8968 8.073C68.6953 7.64706 67.5598 7.05371 66.5241 6.3105C64.6396 4.84961 62.3751 3.96086 60 3.75C57.6247 3.96046 55.3598 4.84896 53.475 6.30975C52.4397 7.05254 51.3049 7.64587 50.1041 8.07225C48.7976 8.31733 47.4632 8.3783 46.1398 8.25338C43.8319 7.94479 41.4838 8.29786 39.3686 9.2715C37.4506 10.6294 35.9595 12.506 35.0702 14.6812C34.5308 15.8724 33.8249 16.9809 32.9736 17.9734C31.9805 18.8241 30.8721 19.5301 29.6812 20.0702C27.5055 20.9597 25.6285 22.4511 24.2704 24.3696C23.2985 26.4839 22.9461 28.8305 23.2541 31.137C23.3811 32.461 23.3201 33.7963 23.073 35.1032C22.6468 36.3048 22.0531 37.4402 21.3096 38.4759C19.849 40.3605 18.9606 42.625 18.75 45C18.9605 47.3753 19.849 49.6402 21.3098 51.525C22.0529 52.5603 22.6465 53.695 23.0732 54.8959C23.3202 56.2022 23.3812 57.5368 23.2543 58.8602C22.9451 61.1681 23.2982 63.5164 24.2724 65.6314C25.63 67.5496 27.5063 69.0411 29.6814 69.9307C30.8726 70.4701 31.9811 71.1761 32.9736 72.0274C33.8242 73.0201 34.5301 74.1282 35.0702 75.3187C35.5992 76.389 36.208 77.4179 36.8916 78.3968L26.3634 107.322C26.2428 107.654 26.2183 108.013 26.2929 108.358C26.3674 108.704 26.5379 109.021 26.7848 109.273C27.0317 109.526 27.3448 109.703 27.6883 109.786C28.0317 109.868 28.3914 109.852 28.7259 109.739L38.6777 106.377L44.1416 115.351C44.3091 115.626 44.5444 115.853 44.825 116.011C45.1056 116.168 45.422 116.251 45.7438 116.251C45.8042 116.251 45.8664 116.247 45.9287 116.242C46.2802 116.207 46.6148 116.074 46.8937 115.857C47.1727 115.64 47.3847 115.349 47.5052 115.017L58.0738 85.9843C59.3336 86.3401 60.6672 86.3401 61.9269 85.9843L72.4956 115.017C72.6161 115.349 72.8281 115.64 73.107 115.857C73.386 116.074 73.7205 116.207 74.0721 116.242C74.1343 116.247 74.1966 116.251 74.2569 116.251C74.5788 116.251 74.8952 116.168 75.1758 116.011C75.4564 115.853 75.6917 115.626 75.8591 115.351L81.3231 106.377L91.275 109.739C91.6096 109.852 91.9693 109.868 92.3127 109.786C92.6561 109.703 92.9693 109.526 93.2161 109.273C93.463 109.021 93.6335 108.703 93.7081 108.358C93.7826 108.013 93.7581 107.654 93.6375 107.322L83.1086 78.3952C83.7916 77.4166 84.4004 76.3881 84.9298 75.3186C85.4692 74.1274 86.1751 73.0189 87.0264 72.0264C88.0195 71.1757 89.1279 70.4699 90.3187 69.9298C92.4945 69.0403 94.3715 67.5489 95.7296 65.6304C96.7015 63.5161 97.0539 61.1695 96.7459 58.863C96.6189 57.539 96.6799 56.2037 96.927 54.8968C97.3532 53.6952 97.9469 52.5598 98.6904 51.5241C100.151 49.6395 101.039 47.375 101.25 45C101.039 42.625 100.151 40.3605 98.6902 38.4759ZM45.3167 110.068L41.1017 103.145C40.88 102.781 40.5411 102.504 40.1407 102.358C39.7403 102.213 39.3024 102.208 38.8989 102.345L31.2214 104.938L39.9315 81.0058C41.9139 81.7343 44.0396 81.9877 46.1378 81.7457C47.4618 81.6198 48.7969 81.6807 50.1039 81.9268C51.3055 82.3531 52.441 82.9467 53.4767 83.6902C53.8571 83.9323 54.2509 84.1796 54.6529 84.4215L45.3167 110.068ZM81.1011 102.345C80.6976 102.208 80.2597 102.213 79.8593 102.358C79.4589 102.504 79.12 102.781 78.8983 103.145L74.6833 110.068L65.3479 84.4224C65.7499 84.1787 66.1436 83.9323 66.5241 83.6902C67.5593 82.9471 68.6941 82.3535 69.8949 81.9268C71.2013 81.6807 72.5359 81.6197 73.8593 81.7457C75.9585 81.9888 78.0855 81.7348 80.0685 81.0041L88.7786 104.938L81.1011 102.345ZM95.5262 49.5099C94.5661 50.8616 93.8172 52.3514 93.3051 53.9282C92.9472 55.598 92.8435 57.3122 92.9974 59.013C93.2343 60.6112 93.0572 62.2435 92.4829 63.7537C91.4512 65.0249 90.1083 66.0076 88.5846 66.6064C87.0489 67.3101 85.6294 68.2437 84.375 69.375C83.2425 70.6289 82.3083 72.0484 81.6047 73.5846C81.0059 75.1083 80.0231 76.4512 78.7519 77.4829C77.2414 78.0558 75.6095 78.2329 74.0113 77.9974C72.3105 77.8445 70.5963 77.9482 68.9263 78.3051C67.3502 78.8176 65.8611 79.5665 64.5099 80.5262C63.2056 81.5681 61.6503 82.2487 60 82.5C58.3497 82.2487 56.7944 81.5681 55.4901 80.5262C54.1384 79.5661 52.6486 78.8172 51.0718 78.3051C50.0196 78.0462 48.938 77.9265 47.8547 77.9488C47.2284 77.9488 46.6041 77.9743 45.987 77.9981C44.3887 78.2341 42.7567 78.057 41.2462 77.4836C39.9751 76.452 38.9924 75.109 38.3936 73.5853C37.69 72.0494 36.7564 70.6297 35.625 69.375C34.3711 68.2425 32.9516 67.3083 31.4154 66.6047C29.8917 66.0059 28.5488 65.0231 27.5171 63.7519C26.943 62.2417 26.7658 60.6095 27.0026 59.0113C27.1565 57.3105 27.0527 55.5962 26.6949 53.9263C26.1824 52.3502 25.4335 50.8611 24.4738 49.5099C23.4319 48.2056 22.7512 46.6503 22.5 45C22.7512 43.3497 23.4319 41.7944 24.4738 40.4901C25.4339 39.1384 26.1828 37.6486 26.6949 36.0718C27.0528 34.402 27.1565 32.6878 27.0026 30.987C26.7657 29.3888 26.9428 27.7565 27.5171 26.2463C28.5488 24.9751 29.8917 23.9924 31.4154 23.3936C32.9511 22.6899 34.3706 21.7563 35.625 20.625C36.7575 19.3711 37.6917 17.9516 38.3953 16.4154C38.9941 14.8917 39.9769 13.5488 41.2481 12.5171C42.7584 11.9433 44.3905 11.7662 45.9887 12.0026C47.6895 12.1555 49.4037 12.0518 51.0737 11.6949C52.6498 11.1824 54.1389 10.4335 55.4901 9.47381C56.7944 8.43193 58.3497 7.75125 60 7.5C61.6503 7.75125 63.2056 8.43193 64.5099 9.47381C65.8616 10.4339 67.3514 11.1828 68.9282 11.6949C70.5981 12.0518 72.3122 12.1555 74.013 12.0026C75.6112 11.7658 77.2435 11.9429 78.7537 12.5171C80.0249 13.5488 81.0076 14.8917 81.6064 16.4154C82.3101 17.9511 83.2437 19.3706 84.375 20.625C85.6289 21.7575 87.0484 22.6917 88.5846 23.3953C90.1083 23.9941 91.4512 24.9769 92.4829 26.2481C93.057 27.7583 93.2342 29.3905 92.9974 30.9887C92.8435 32.6895 92.9473 34.4038 93.3051 36.0737C93.8176 37.6498 94.5665 39.1389 95.5262 40.4901C96.5681 41.7944 97.2487 43.3497 97.5 45C97.2487 46.6503 96.5681 48.2056 95.5262 49.5099Z" fill="#F2CA7E"/>
<path d="M60 15C54.0666 15 48.2664 16.7595 43.3329 20.0559C38.3994 23.3524 34.5543 28.0377 32.2836 33.5195C30.013 39.0013 29.4189 45.0333 30.5765 50.8527C31.734 56.6721 34.5912 62.0176 38.7868 66.2132C42.9824 70.4088 48.3279 73.266 54.1473 74.4236C59.9667 75.5811 65.9987 74.987 71.4805 72.7164C76.9623 70.4458 81.6477 66.6006 84.9441 61.6671C88.2405 56.7336 90 50.9334 90 45C89.9909 37.0463 86.8273 29.4209 81.2032 23.7968C75.5791 18.1727 67.9537 15.0091 60 15ZM60 71.25C54.8083 71.25 49.7331 69.7105 45.4163 66.8261C41.0995 63.9417 37.735 59.842 35.7482 55.0454C33.7614 50.2489 33.2415 44.9709 34.2544 39.8789C35.2673 34.7869 37.7673 30.1096 41.4385 26.4384C45.1096 22.7673 49.7869 20.2672 54.8789 19.2544C59.9709 18.2415 65.2489 18.7614 70.0454 20.7482C74.842 22.735 78.9417 26.0995 81.8261 30.4163C84.7105 34.7331 86.25 39.8082 86.25 45C86.2422 51.9595 83.474 58.6318 78.5529 63.5529C73.6318 68.474 66.9595 71.2422 60 71.25Z" fill="#034AA6"/>
<path d="M66.7273 35.6451L61.6809 25.4206C61.5088 25.1278 61.2631 24.885 60.9683 24.7164C60.6734 24.5477 60.3397 24.459 60 24.459C59.6603 24.459 59.3266 24.5477 59.0317 24.7164C58.7369 24.885 58.4912 25.1278 58.3191 25.4206L53.2727 35.6451L41.988 37.2858C41.6419 37.3361 41.3168 37.4822 41.0494 37.7076C40.782 37.933 40.583 38.2286 40.4748 38.5612C40.3666 38.8938 40.3536 39.2499 40.4372 39.5895C40.5208 39.9291 40.6977 40.2385 40.9479 40.4828L49.1143 48.4424L47.1862 59.6834C47.1272 60.0282 47.1659 60.3827 47.2978 60.7067C47.4297 61.0307 47.6496 61.3113 47.9327 61.5169C48.2158 61.7224 48.5508 61.8447 48.8997 61.8698C49.2486 61.8949 49.5976 61.8219 49.9072 61.6591L60 56.3526L70.0927 61.6589C70.4024 61.8217 70.7514 61.8947 71.1003 61.8696C71.4492 61.8445 71.7842 61.7222 72.0673 61.5167C72.3503 61.3111 72.5703 61.0305 72.7022 60.7065C72.8341 60.3825 72.8727 60.028 72.8137 59.6832L70.8857 48.4422L79.0521 40.4826C79.3023 40.2383 79.4792 39.9289 79.5628 39.5893C79.6464 39.2498 79.6334 38.8936 79.5252 38.561C79.417 38.2285 79.218 37.9328 78.9506 37.7074C78.6832 37.482 78.3581 37.3359 78.012 37.2856L66.7273 35.6451ZM67.5622 46.4466C67.3448 46.6588 67.1823 46.9207 67.0885 47.2097C66.9947 47.4986 66.9726 47.806 67.0239 48.1054L68.4759 56.5724L60.8734 52.5751C60.6041 52.4332 60.3043 52.3591 60 52.3591C59.6956 52.3591 59.3959 52.4332 59.1266 52.5751L51.525 56.5724L52.977 48.1054C53.0284 47.806 53.0062 47.4986 52.9124 47.2097C52.8187 46.9207 52.6561 46.6588 52.4387 46.4466L46.2862 40.4498L54.7879 39.214C55.0888 39.1706 55.3746 39.0545 55.6206 38.8758C55.8666 38.6972 56.0653 38.4613 56.1997 38.1886L60 30.4876L63.8012 38.1889C63.9356 38.4617 64.1344 38.6975 64.3804 38.8762C64.6264 39.0549 64.9121 39.1709 65.2131 39.2144L73.7147 40.4502L67.5622 46.4466Z" fill="#F24822"/>
</svg>
