<svg width="120" height="120" viewBox="0 0 120 120" fill="none" xmlns="http://www.w3.org/2000/svg">
<path d="M116.045 39.8462H99.8636C98.7727 39.8462 98.0454 40.5735 98.0454 41.6644V111.483C98.0454 112.573 98.7727 113.301 99.8636 113.301H116.045C117.136 113.301 117.864 112.573 117.864 111.483V41.6644C117.864 40.5735 117.136 39.8462 116.045 39.8462ZM114.227 109.664H101.682V43.4826H114.227V109.664Z" fill="#F2CA7E"/>
<path d="M67.682 64.7549C66.591 64.7549 65.8638 65.4822 65.8638 66.5731V111.482C65.8638 112.573 66.591 113.3 67.682 113.3H83.8638C84.9547 113.3 85.6819 112.573 85.6819 111.482V66.5731C85.6819 65.4822 84.9547 64.7549 83.8638 64.7549H67.682ZM82.0456 109.664H69.5001V68.3912H82.0456V109.664Z" fill="#F24822"/>
<path d="M35.4998 42.0278C34.4089 42.0278 33.6816 42.7551 33.6816 43.846V111.482C33.6816 112.573 34.4089 113.301 35.4998 113.301H51.6816C52.7726 113.301 53.4998 112.573 53.4998 111.482V43.846C53.4998 42.7551 52.7726 42.0278 51.6816 42.0278H35.4998ZM49.8635 109.664H37.318V45.6642H49.8635V109.664Z" fill="#034AA6"/>
<path d="M1.5 111.482C1.5 112.573 2.22727 113.301 3.31818 113.301H19.5C20.5909 113.301 21.3182 112.573 21.3182 111.482V68.7552C21.3182 67.6643 20.5909 66.937 19.5 66.937H3.31818C2.22727 66.937 1.5 67.6643 1.5 68.7552V111.482ZM5.13636 70.5734H17.6818V109.664H5.13636V70.5734Z" fill="#F2CA7E"/>
<path d="M1.68175 46.2097C2.40902 50.3915 5.68175 53.846 9.86356 54.3915C13.4999 54.9369 16.7727 53.4824 18.9545 51.1188C21.4999 48.0278 22.0454 43.6642 20.2272 40.2097L37.1363 27.1188C40.9545 30.5733 46.7727 30.5733 50.5908 26.7551L66.9545 38.2097C65.4999 41.3006 65.8636 45.3006 67.8636 48.0278C71.8636 53.4824 79.8636 53.4824 83.8636 48.0278C86.0454 44.9369 86.409 40.7551 84.5908 37.4824L113.864 13.6642L112.773 25.3006C112.591 26.2097 113.318 27.1188 114.409 27.3006C115.318 27.4824 116.227 26.7551 116.409 25.6642L117.864 9.66421C118.045 8.75512 117.136 7.84603 116.227 7.66421L100.227 6.02784C99.3181 5.84603 98.409 6.5733 98.2272 7.66421C98.0454 8.5733 98.7727 9.48239 99.8636 9.66421L111.5 10.7551L82.0454 34.9369C78.2272 31.846 72.5908 31.846 68.7727 35.4824L52.409 24.0278C53.8636 20.9369 53.4999 16.9369 51.4999 14.2097C47.4999 8.75512 39.4999 8.75512 35.4999 14.2097C33.3181 17.3006 32.9545 21.3006 34.7727 24.5733L17.8636 37.3006C16.409 36.0278 14.7727 35.1188 12.9545 34.9369C6.2272 33.846 0.590836 39.6642 1.68175 46.2097ZM80.7727 38.7551C82.409 40.9369 82.409 43.846 80.7727 46.0278C78.2272 49.4824 73.1363 49.4824 70.5908 46.0278C69.1363 43.846 68.9545 40.9369 70.5908 38.7551C73.3181 35.3006 78.2272 35.3006 80.7727 38.7551ZM38.5908 16.0278C41.1363 12.5733 46.2272 12.5733 48.7727 16.0278C50.2272 18.2097 50.409 21.1188 48.7727 23.3006C46.2272 26.7551 41.1363 26.7551 38.5908 23.3006C36.9545 21.3006 36.9545 18.2097 38.5908 16.0278ZM12.409 38.5733C17.1363 39.3006 19.3181 44.9369 16.2272 48.7551C14.7727 50.3915 12.7727 51.1188 10.409 50.9369C7.86356 50.5733 5.68175 48.3915 5.31811 45.846C4.59084 41.4824 8.2272 37.846 12.409 38.5733Z" fill="#404040"/>
</svg>
