<svg width="400" height="400" viewBox="0 0 400 400" fill="none" xmlns="http://www.w3.org/2000/svg">
<circle cx="200" cy="200" r="200" fill="white"/>
<path fill-rule="evenodd" clip-rule="evenodd" d="M141.672 137.214C158.897 119.595 186.824 119.595 204.049 137.215L280.575 215.493L65.146 215.493L97.5153 182.383C98.8403 181.027 100.989 181.027 102.314 182.383C103.638 183.738 103.638 185.936 102.314 187.291L81.5282 208.552L264.193 208.552L199.251 142.123C184.676 127.214 161.045 127.214 146.47 142.123L120.974 168.203C119.649 169.558 117.501 169.558 116.176 168.203C114.851 166.848 114.851 164.65 116.176 163.295L141.672 137.214Z" fill="#F24822"/>
<path fill-rule="evenodd" clip-rule="evenodd" d="M256.637 158.432C270.329 144.427 292.527 144.427 306.219 158.432L362 215.491L200.856 215.491L229.267 186.429C230.592 185.073 232.741 185.073 234.066 186.429C235.391 187.784 235.391 189.982 234.066 191.337L217.238 208.549L345.618 208.549L301.421 163.34C290.379 152.046 272.477 152.046 261.436 163.34L252.161 172.827C250.836 174.183 248.688 174.183 247.363 172.827C246.038 171.472 246.038 169.274 247.363 167.919L256.637 158.432Z" fill="#034AA6"/>
<path fill-rule="evenodd" clip-rule="evenodd" d="M242.888 265.609C229.197 279.614 206.998 279.614 193.307 265.609L184.032 256.122C182.707 254.766 182.707 252.569 184.032 251.214C185.357 249.858 187.505 249.858 188.83 251.214L198.105 260.701C209.146 271.995 227.048 271.995 238.09 260.701L282.287 215.492L209.05 215.492C207.176 215.492 205.657 213.938 205.657 212.021C205.657 210.104 207.176 208.55 209.05 208.55L298.669 208.55L242.888 265.609ZM170.735 237.612C169.41 238.967 167.261 238.967 165.936 237.612L143.317 214.475C141.992 213.12 141.992 210.922 143.317 209.567C144.642 208.212 146.791 208.212 148.116 209.567L170.735 232.704C172.06 234.059 172.06 236.257 170.735 237.612Z" fill="#F2CA7E"/>
<path fill-rule="evenodd" clip-rule="evenodd" d="M69.9429 212.023C69.9429 210.107 71.4619 208.553 73.3357 208.553H109.526C111.4 208.553 112.919 210.107 112.919 212.023C112.919 213.94 111.4 215.494 109.526 215.494H73.3357C71.4619 215.494 69.9429 213.94 69.9429 212.023Z" fill="#F2CA7E"/>
<path fill-rule="evenodd" clip-rule="evenodd" d="M177.681 249.019C167.523 259.41 151.053 259.41 140.895 249.019L101.335 208.553L145.717 208.553L145.717 215.494L117.717 215.494L145.693 244.111C153.201 251.791 165.375 251.791 172.883 244.111L212.871 203.207L217.669 208.115L177.681 249.019Z" fill="#034AA6"/>
<path fill-rule="evenodd" clip-rule="evenodd" d="M77.5597 175.029C87.718 164.639 104.188 164.639 114.346 175.029L148.114 209.571C149.439 210.926 149.439 213.123 148.114 214.479C146.789 215.834 144.641 215.834 143.316 214.479L109.548 179.938C102.04 172.257 89.8662 172.257 82.3579 179.938L54.3821 208.554H73.3339C75.2077 208.554 76.7267 210.108 76.7267 212.025C76.7267 213.941 75.2077 215.495 73.3339 215.495H38L77.5597 175.029Z" fill="#F2CA7E"/>
</svg>
